<svg xmlns="http://www.w3.org/2000/svg" xmlns:xlink="http://www.w3.org/1999/xlink" width="32.706" height="77.619" viewBox="0 0 32.706 77.619">
  <defs>
    <clipPath id="clip-path">
      <path id="Pfad_98363" data-name="Pfad 98363" d="M4.166,9.7C-3.727,24.735.408,39.019,9.053,49.543c4.886,5.826,9.209,10.9,10.9,19.546,0,0,15.411-17.854-.564-33.829C14.879,29.434,3.791,21.728,4.166,9.7Z" transform="translate(0.036 -9.7)" fill="#f6a14d"/>
    </clipPath>
    <clipPath id="clip-path-2">
      <rect id="Rechteck_3430" data-name="Rechteck 3430" width="42.85" height="84.197" fill="#f6a14d"/>
    </clipPath>
  </defs>
  <g id="Gruppe_25555" data-name="Gruppe 25555" transform="translate(-2648 246.131)">
    <path id="Pfad_98322" data-name="Pfad 98322" d="M9.966,0C2.073,7.893-1.122,23.117,12.785,36.836c3.007,2.819,10.525,9.773,13.532,20.11,6.014-13.156,3.571-22.741-1.879-31.574C18.8,15.975,10.154,12.4,9.966,0Z" transform="translate(2650.882 -246.131)" fill="#f6a14d"/>
    <g id="Gruppe_25558" data-name="Gruppe 25558" transform="translate(2648 -227.9)">
      <g id="Gruppe_25557" data-name="Gruppe 25557" clip-path="url(#clip-path)">
        <g id="Gruppe_25556" data-name="Gruppe 25556" transform="translate(-5.194 -3.195)">
          <g id="Gruppe_25555-2" data-name="Gruppe 25555" clip-path="url(#clip-path-2)">
            <path id="Pfad_98323" data-name="Pfad 98323" d="M-2.8,20.312,42.869-6l.564.94L-2.236,21.251Z" transform="translate(2.8 -20.312)" fill="#f6a14d"/>
            <path id="Pfad_98324" data-name="Pfad 98324" d="M-2.8,21.412,42.869-4.9l.564.94L-2.236,22.351Z" transform="translate(2.8 -19.344)" fill="#f6a14d"/>
            <path id="Pfad_98325" data-name="Pfad 98325" d="M-2.8,22.612,42.869-3.7l.564.94L-2.236,23.551Z" transform="translate(2.8 -18.289)" fill="#f6a14d"/>
            <path id="Pfad_98326" data-name="Pfad 98326" d="M-2.8,23.812,42.869-2.5l.564.94L-2.236,24.751Z" transform="translate(2.8 -17.234)" fill="#f6a14d"/>
            <path id="Pfad_98327" data-name="Pfad 98327" d="M-2.8,24.912,42.869-1.4l.564.94L-2.236,25.851Z" transform="translate(2.8 -16.266)" fill="#f6a14d"/>
            <path id="Pfad_98328" data-name="Pfad 98328" d="M-2.8,26.112,42.869-.2l.564.94L-2.236,27.051Z" transform="translate(2.8 -15.211)" fill="#f6a14d"/>
            <path id="Pfad_98329" data-name="Pfad 98329" d="M-2.8,27.312,42.869,1l.564.94L-2.236,28.251Z" transform="translate(2.8 -14.156)" fill="#f6a14d"/>
            <path id="Pfad_98330" data-name="Pfad 98330" d="M-2.8,28.512,42.869,2.2l.564.94L-2.236,29.451Z" transform="translate(2.8 -13.101)" fill="#f6a14d"/>
            <path id="Pfad_98331" data-name="Pfad 98331" d="M-2.8,29.612,42.869,3.3l.564.94L-2.236,30.551Z" transform="translate(2.8 -12.133)" fill="#f6a14d"/>
            <path id="Pfad_98332" data-name="Pfad 98332" d="M-2.8,30.812,42.869,4.5l.564.94L-2.236,31.751Z" transform="translate(2.8 -11.078)" fill="#f6a14d"/>
            <path id="Pfad_98333" data-name="Pfad 98333" d="M-2.8,32.012,42.869,5.7l.564.94L-2.236,32.951Z" transform="translate(2.8 -10.023)" fill="#f6a14d"/>
            <path id="Pfad_98334" data-name="Pfad 98334" d="M-2.8,33.112,42.869,6.8l.564.94L-2.236,34.051Z" transform="translate(2.8 -9.055)" fill="#f6a14d"/>
            <path id="Pfad_98335" data-name="Pfad 98335" d="M-2.8,34.312,42.869,8l.564.94L-2.236,35.251Z" transform="translate(2.8 -8)" fill="#f6a14d"/>
            <path id="Pfad_98336" data-name="Pfad 98336" d="M-2.8,35.512,42.869,9.2l.564.94L-2.236,36.451Z" transform="translate(2.8 -6.945)" fill="#f6a14d"/>
            <path id="Pfad_98337" data-name="Pfad 98337" d="M-2.8,36.612,42.869,10.3l.564.94L-2.236,37.551Z" transform="translate(2.8 -5.977)" fill="#f6a14d"/>
            <path id="Pfad_98338" data-name="Pfad 98338" d="M-2.8,37.812,42.869,11.5l.564.94L-2.236,38.751Z" transform="translate(2.8 -4.922)" fill="#f6a14d"/>
            <path id="Pfad_98339" data-name="Pfad 98339" d="M-2.8,39.012,42.869,12.7l.564.94L-2.236,39.951Z" transform="translate(2.8 -3.867)" fill="#f6a14d"/>
            <path id="Pfad_98340" data-name="Pfad 98340" d="M-2.8,40.112,42.869,13.8l.564.94L-2.236,41.051Z" transform="translate(2.8 -2.9)" fill="#f6a14d"/>
            <path id="Pfad_98341" data-name="Pfad 98341" d="M-2.8,41.312,42.869,15l.564.94L-2.236,42.251Z" transform="translate(2.8 -1.844)" fill="#f6a14d"/>
            <path id="Pfad_98342" data-name="Pfad 98342" d="M-2.8,42.512,42.869,16.2l.564.94L-2.236,43.451Z" transform="translate(2.8 -0.789)" fill="#f6a14d"/>
            <path id="Pfad_98343" data-name="Pfad 98343" d="M-2.8,43.612,42.869,17.3l.564.94L-2.236,44.551Z" transform="translate(2.8 0.178)" fill="#f6a14d"/>
            <path id="Pfad_98344" data-name="Pfad 98344" d="M-2.8,44.812,42.869,18.5l.564.94L-2.236,45.751Z" transform="translate(2.8 1.234)" fill="#f6a14d"/>
            <path id="Pfad_98345" data-name="Pfad 98345" d="M-2.8,46.012,42.869,19.7l.564.94L-2.236,46.951Z" transform="translate(2.8 2.289)" fill="#f6a14d"/>
            <path id="Pfad_98346" data-name="Pfad 98346" d="M-2.8,47.212,42.869,20.9l.564.94L-2.236,48.151Z" transform="translate(2.8 3.344)" fill="#f6a14d"/>
            <path id="Pfad_98347" data-name="Pfad 98347" d="M-2.8,48.312,42.869,22l.564.94L-2.236,49.251Z" transform="translate(2.8 4.312)" fill="#f6a14d"/>
            <path id="Pfad_98348" data-name="Pfad 98348" d="M-2.8,49.512,42.869,23.2l.564.94L-2.236,50.451Z" transform="translate(2.8 5.367)" fill="#f6a14d"/>
            <path id="Pfad_98349" data-name="Pfad 98349" d="M-2.8,50.712,42.869,24.4l.564.94L-2.236,51.651Z" transform="translate(2.8 6.422)" fill="#f6a14d"/>
            <path id="Pfad_98350" data-name="Pfad 98350" d="M-2.8,51.812,42.869,25.5l.564.94L-2.236,52.751Z" transform="translate(2.8 7.389)" fill="#f6a14d"/>
            <path id="Pfad_98351" data-name="Pfad 98351" d="M-2.8,53.012,42.869,26.7l.564.94L-2.236,53.951Z" transform="translate(2.8 8.445)" fill="#f6a14d"/>
            <path id="Pfad_98352" data-name="Pfad 98352" d="M-2.8,54.212,42.869,27.9l.564.94L-2.236,55.151Z" transform="translate(2.8 9.5)" fill="#f6a14d"/>
            <path id="Pfad_98353" data-name="Pfad 98353" d="M-2.8,55.312,42.869,29l.564.94L-2.236,56.251Z" transform="translate(2.8 10.467)" fill="#f6a14d"/>
            <path id="Pfad_98354" data-name="Pfad 98354" d="M-2.8,56.512,42.869,30.2l.564.94L-2.236,57.451Z" transform="translate(2.8 11.523)" fill="#f6a14d"/>
            <path id="Pfad_98355" data-name="Pfad 98355" d="M-2.8,57.712,42.869,31.4l.564.94L-2.236,58.651Z" transform="translate(2.8 12.578)" fill="#f6a14d"/>
            <path id="Pfad_98356" data-name="Pfad 98356" d="M-2.8,58.812,42.869,32.5l.564.94L-2.236,59.751Z" transform="translate(2.8 13.545)" fill="#f6a14d"/>
            <path id="Pfad_98357" data-name="Pfad 98357" d="M-2.8,60.012,42.869,33.7l.564.94L-2.236,60.951Z" transform="translate(2.8 14.6)" fill="#f6a14d"/>
            <path id="Pfad_98358" data-name="Pfad 98358" d="M-2.8,61.212,42.869,34.9l.564.94L-2.236,62.151Z" transform="translate(2.8 15.656)" fill="#f6a14d"/>
            <path id="Pfad_98359" data-name="Pfad 98359" d="M-2.8,62.312,42.869,36l.564.94L-2.236,63.251Z" transform="translate(2.8 16.623)" fill="#f6a14d"/>
            <path id="Pfad_98360" data-name="Pfad 98360" d="M-2.8,63.512,42.869,37.2l.564.94L-2.236,64.451Z" transform="translate(2.8 17.678)" fill="#f6a14d"/>
            <path id="Pfad_98361" data-name="Pfad 98361" d="M-2.8,64.712,42.869,38.4l.564.94L-2.236,65.651Z" transform="translate(2.8 18.734)" fill="#f6a14d"/>
            <path id="Pfad_98362" data-name="Pfad 98362" d="M-2.8,65.912,42.869,39.6l.564.94L-2.236,66.663Z" transform="translate(2.8 19.789)" fill="#f6a14d"/>
          </g>
        </g>
      </g>
    </g>
    <path id="Pfad_98364" data-name="Pfad 98364" d="M3.415,13.835C4.73,21.352,9.993,26.8,14.315,31.5c1.5,1.691,3.007,3.195,4.135,4.511h0c6.39,6.39,8.457,13.72,6.014,21.8a39.268,39.268,0,0,1-4.135,8.833c-1.879-7.33-5.638-12.028-10.149-17.29L9.8,48.791C4.73,42.589-2.787,29.81,3.415,13.835M4.166,9.7C-3.727,24.735.408,39.019,9.053,49.543c4.886,5.826,9.209,10.9,10.9,19.546,0,0,15.411-17.854-.564-33.829C14.879,29.434,3.791,21.728,4.166,9.7Z" transform="translate(2648.036 -237.6)" fill="#f6a14d"/>
  </g>
</svg>