<svg xmlns="http://www.w3.org/2000/svg" width="87.906" height="31.806">
  <path
    d="M17.022 31.808V18.041h14.577l1.564 2.039 1.616-2.039h52.91v12.818a6.111 6.111 0 01-2.984.949h-29.3l-1.763-2.17v2.17h-5.778v-3.7a4.848 4.848 0 01-2.5.517h-1.967v3.187h-8.748l-1.562-2.083-1.586 2.083zM0 7.664L3.287.001h5.685l1.865 4.293V.001H17.9l1.111 3.1 1.077-3.1H51.81v1.56a6.844 6.844 0 014.408-1.56l10.293.036 1.833 4.237V.002h5.914l1.628 2.433V.002h5.968v13.767h-5.968l-1.56-2.441v2.441h-8.689l-.874-2.17H62.43l-.86 2.17h-5.892a5.825 5.825 0 01-3.866-1.528v1.528h-8.884l-1.763-2.17v2.17H8.129l-.873-2.17H4.928l-.867 2.17H0z"
    style="fill: #ececec" />
  <g data-name="Gruppe 25588" style="fill: #35383f">
    <path
      d="M4.45 1.697L.016 12.005h2.886l.818-2.064h4.756l.814 2.064h2.95L7.811 1.697zm1.64 2.4l1.45 3.607h-2.9l1.454-3.607zM12.546 12.003V1.695l4.1.015 2.386 6.646 2.329-6.661h4.069v10.308h-2.577v-7.6l-2.732 7.6h-2.26l-2.739-7.6v7.6zM27.195 12.003V1.695h8.409v2.306h-5.805v1.763h5.67v2.17h-5.67v1.831h5.805v2.238zM37.099 1.697v10.308h2.577V8.343h1.085l3.09 3.662h3.148l-3.391-3.8a3.139 3.139 0 002.827-3.166 3.334 3.334 0 00-3.6-3.344h-5.736zm2.577 2.306h2.946a1.183 1.183 0 011.221 1.085 1.165 1.165 0 01-1.183 1.085h-2.984zM50.117 12.003h-2.631V1.695h2.631zM56.356 12.003h-.568c-2.748 0-4.417-2.165-4.417-5.112 0-3.019 1.65-5.2 5.12-5.2h2.848v2.441h-2.952a2.48 2.48 0 00-2.405 2.781 2.524 2.524 0 002.781 2.835h.678zM61.964 1.697L57.53 12.005h2.886l.818-2.064h4.756l.814 2.064h2.95L65.325 1.697zm1.64 2.4l1.45 3.607h-2.9zM70.056 12.003V1.695h3.276l4.184 6.477V1.695h2.577v10.308h-3.17l-4.289-6.646v6.646zM18.787 30.043V19.735h8.409v2.306h-5.809v1.763h5.67v2.17h-5.67v1.831h5.805v2.238zM59.992 30.043V19.735h8.409v2.306h-5.805v1.763h5.642v2.17h-5.642v1.831h5.805v2.238zM27.521 30.043l4.094-5.091-4.192-5.218h3.247l2.5 3.226 2.505-3.226h3.12l-4.137 5.154 4.1 5.154h-3.246l-2.424-3.175-2.365 3.175zM39.063 19.736v10.308h2.645v-3.255h2.713c2.3 0 4.035-1.218 4.035-3.586a3.392 3.392 0 00-3.7-3.467zm2.645 2.331h2.857a1.163 1.163 0 011.272 1.187 1.189 1.189 0 01-1.28 1.187h-2.848zM49.575 19.735v10.308h2.577v-3.662h1.085l3.09 3.662h3.149l-3.391-3.8a3.139 3.139 0 002.827-3.166 3.334 3.334 0 00-3.6-3.344zm2.577 2.306h2.946a1.183 1.183 0 011.221 1.085 1.165 1.165 0 01-1.183 1.085h-2.984zM69.595 30.044V27.81h5.157c.763 0 1.094-.412 1.094-.865 0-.433-.329-.871-1.094-.871h-2.331a2.882 2.882 0 01-3.154-3.087c0-1.653 1.033-3.247 4.044-3.247h5.018l-1.085 2.319h-4.341c-.83 0-1.085.435-1.085.851a.9.9 0 00.949.9h2.441c2.258 0 3.238 1.281 3.238 2.959a3.091 3.091 0 01-3.361 3.281zM79.053 30.044V27.81h5.158c.763 0 1.094-.412 1.094-.865 0-.433-.329-.871-1.094-.871H81.88a2.882 2.882 0 01-3.154-3.087c0-1.653 1.033-3.247 4.044-3.247h5.018l-1.085 2.319h-4.339c-.83 0-1.085.435-1.085.851a.9.9 0 00.949.9h2.436c2.258 0 3.238 1.281 3.238 2.959a3.091 3.091 0 01-3.361 3.281z"
      style="fill: #35383f" />
  </g>
</svg>