<svg xmlns="http://www.w3.org/2000/svg" width="24.75" height="18">
  <g data-name="Gruppe 25360">
    <g data-name="Gruppe 25359">
      <path data-name="Pfad 98306"
        d="M21.375 4.5H18V0H2.25A2.249 2.249 0 000 2.25v12.375h2.25a3.375 3.375 0 006.75 0h6.75a3.375 3.375 0 006.75 0h2.25V9zM5.625 16.312a1.687 1.687 0 111.687-1.687 1.685 1.685 0 01-1.687 1.687zm13.5 0a1.687 1.687 0 111.687-1.687 1.685 1.685 0 01-1.687 1.687zM18 9V6.188h2.812L23.023 9z"
        fill="#c7c2bd" />
    </g>
    <path data-name="Pfad 98307"
      d="M3.257 9.5h.786V6.864h1.078v-.558H4.043V4.429h1.391v-.563H3.257zm2.734 0h.784V6.857h.612L8.124 9.5h.758l-.8-2.824c.5-.167.7-.654.7-1.315 0-1.071-.529-1.5-1.656-1.5H5.991zm.784-3.206V4.429h.35c.716 0 .9.271.9.932 0 .723-.285.932-.946.932zM9.615 9.5h2.2v-.563h-1.414V6.871h1.134v-.556h-1.134V4.45h1.4v-.584H9.615zm2.845 0h2.2v-.563h-1.414V6.871h1.129v-.556h-1.129V4.45h1.4v-.584H12.46z"
      style="fill: #625444" />
  </g>
</svg>