<svg xmlns="http://www.w3.org/2000/svg" width="20" height="24.377" viewBox="0 0 20 24.377">
    <g id="Gruppe_25665" data-name="Gruppe 25665" transform="translate(-1195.612 -1515.216)">
        <circle id="Ellipse_2055" data-name="Ellipse 2055" cx="7.5" cy="7.5" r="7.5"
            transform="translate(1198.112 1520.155)" fill="#c7c2bd" />
        <g id="empty-set-mathematical-symbol" transform="translate(1181.302 1515.218)">
            <g id="Gruppe_25608" data-name="Gruppe 25608" transform="translate(14.615 -0.001)">
                <path id="Pfad_98613" data-name="Pfad 98613"
                    d="M17.734,19.58,15.685,22.4A1.247,1.247,0,0,0,17.7,23.863l2.066-2.838A9.689,9.689,0,0,0,31.058,5.511l2.571-3.532A1.246,1.246,0,1,0,31.614.511L29.062,4.018A9.689,9.689,0,0,0,17.734,19.58Zm13.778-7.116a7.186,7.186,0,0,1-10.256,6.513l8.312-11.42A7.166,7.166,0,0,1,31.512,12.464Zm-7.2-7.2a7.147,7.147,0,0,1,3.268.792L19.213,17.547a7.2,7.2,0,0,1,5.1-12.285Z"
                    transform="translate(-14.615 0.001)" fill="#c7c2bd" />
            </g>
        </g>
        <line id="Linie_443" data-name="Linie 443" y1="15" x2="11" transform="translate(1200.5 1519.794)" fill="none"
            stroke="#fff" stroke-width="2.2" />
        <g id="Ellipse_2056" data-name="Ellipse 2056" transform="translate(1197.612 1519.655)" fill="none"
            stroke="#c7c2bd" stroke-width="2">
            <circle cx="8" cy="8" r="8" stroke="none" />
            <circle cx="8" cy="8" r="9" fill="none" />
        </g>
    </g>
</svg>