<svg xmlns="http://www.w3.org/2000/svg" width="96.628" height="24.6">
  <g data-name="Die_Post_(ch)_Logo_2019" fill-rule="evenodd">
    <path d="M74.347 24.599l1.306-6.128H1.304l-1.3 6.128z" style="fill: #ececec" />
    <path
      d="M20.285 7.735H17.52l-2.749 12.78h2.765zM29.974 7.735h-7.731l-2.731 12.78h7.816l.5-2.319h-5.052l.687-3.179h4.381l.5-2.3h-4.381l.567-2.662h4.947zM11.806 14.352c-.326 1.511-1.237 3.351-3.23 3.745a6.74 6.74 0 01-1.116.086H6.154l1.718-8.075h1.185a6.615 6.615 0 011 .069c1.821.309 2.2 2.164 1.751 4.175M10.736 7.82a14.453 14.453 0 00-1.667-.086H5.583l-2.732 12.78h4.605a10.608 10.608 0 001.289-.067 6.671 6.671 0 005.873-5.722c.722-3.71-.583-6.425-3.883-6.906M75.912 7.735h-9.687l-.516 2.369h3.468l-2.232 10.411h2.765l2.234-10.411h3.453zM52.625 14.146c-.447 2.062-1.288 4.209-3.624 4.209-2.252 0-2.56-2.113-2.1-4.209.445-2.061 1.288-4.208 3.623-4.208 2.252 0 2.562 2.111 2.1 4.208m-1.9-6.549c-4.433 0-6.117 3.006-6.823 6.528-.721 3.521.775 6.527 4.812 6.527 4.432 0 6.116-3.006 6.82-6.527.721-3.522-.773-6.528-4.809-6.528M56.947 11.497a3.524 3.524 0 001.8 2.921l1.461 1.082a4.975 4.975 0 01.773.653 1.035 1.035 0 01.343.738 1.091 1.091 0 01-.533.962 4 4 0 01-2.044.379 9.784 9.784 0 01-2.749-.465l-.824 2.337a12.679 12.679 0 003.745.515 7.966 7.966 0 003.23-.55 3.393 3.393 0 002.267-3.212 2.9 2.9 0 00-.652-1.872 7.775 7.775 0 00-1.374-1.255l-1.323-1c-.67-.5-1.17-.876-1.17-1.461a1.125 1.125 0 011.083-1.116 12.125 12.125 0 011.478-.052h2.101l.516-2.37h-2.336a21.464 21.464 0 00-2.3.086 3.706 3.706 0 00-3.488 3.676M40.522 12.236a2.306 2.306 0 01-1.821 1.942 5.056 5.056 0 01-.876.085h-1.119l.893-4.174h1.2a2.576 2.576 0 01.808.1c.687.224 1.1.894.91 2.045m-.411-4.41a8.61 8.61 0 00-1.254-.086h-3.486l-2.749 12.78h2.749l.841-3.9h1.6a6.49 6.49 0 001.925-.241 5.075 5.075 0 003.538-4 3.612 3.612 0 00-3.164-4.553"
     style="fill: #35383f" />
    <path
      d="M88.864 7.725S90.496.043 90.504 0H80.121c0 .027-2.158 10.076-2.167 10.118h2.571l1.655-7.724h5.245l-1.657 7.724h7.788l-1.034 4.831h-7.747l-1.547 7.226h-5.87c-.005.028-.5 2.385-.51 2.425h8.441l1.555-7.242h7.72l2.067-9.633z"
     style="fill: #ececec" />
  </g>
</svg>