<svg xmlns="http://www.w3.org/2000/svg" width="24.238" height="24.238" viewBox="0 0 24.238 24.238">
    <g transform="translate(-245.07 -5090.482)" fill="#35383f">
        <path d="M263.194,5090.482H251.185a6.123,6.123,0,0,0-6.115,6.115V5108.6a6.121,6.121,0,0,0,6.115,6.115h12.009a6.12,6.12,0,0,0,6.114-6.115V5096.6A6.122,6.122,0,0,0,263.194,5090.482Zm3.477,18.123a3.482,3.482,0,0,1-3.477,3.479H251.185a3.481,3.481,0,0,1-3.476-3.479V5096.6a3.478,3.478,0,0,1,3.476-3.476h12.009a3.48,3.48,0,0,1,3.477,3.476Z" />
        <path d="M263.633,5094.695a1.477,1.477,0,1,0,1.478,1.477A1.479,1.479,0,0,0,263.633,5094.695Z" />
        <path d="M257.189,5096.359a6.243,6.243,0,1,0,6.242,6.242A6.251,6.251,0,0,0,257.189,5096.359Zm0,9.848a3.6,3.6,0,1,1,3.605-3.606A3.61,3.61,0,0,1,257.189,5106.207Z" />
    </g>
</svg>