<svg xmlns="http://www.w3.org/2000/svg" width="46.123" height="35.874">
  <g data-name="Gruppe 25328">
    <path data-name="Pfad 1253"
      d="M8.392 35.676v-2.373a1.41 1.41 0 00-1.309-1.5 1.452 1.452 0 00-.18 0 1.466 1.466 0 00-1.33.673 1.388 1.388 0 00-1.25-.673 1.249 1.249 0 00-1.109.563v-.468H2.39v3.785h.831v-2.089a.888.888 0 01.759-1 .873.873 0 01.167-.007c.547 0 .824.356.824 1v2.106h.831v-2.1a.89.89 0 01.767-1 .935.935 0 01.159-.007c.563 0 .831.356.831 1v2.106zm12.3-3.785H19.34v-1.148h-.832v1.148h-.752v.752h.768v1.742c0 .879.341 1.4 1.315 1.4a1.925 1.925 0 001.028-.291l-.238-.7a1.525 1.525 0 01-.728.214c-.4 0-.547-.253-.547-.633v-1.732H20.7zm7.023-.095a1.116 1.116 0 00-1 .554v-.459h-.816v3.785h.824v-2.122c0-.625.269-.974.792-.974a1.344 1.344 0 01.515.1l.253-.792a1.751 1.751 0 00-.586-.1zm-10.619.4a2.828 2.828 0 00-1.544-.4c-.955 0-1.585.46-1.585 1.207 0 .618.459 1 1.307 1.116l.4.056c.451.063.666.181.666.4 0 .293-.3.459-.864.459a2.012 2.012 0 01-1.259-.4l-.4.642a2.728 2.728 0 001.639.491c1.093 0 1.726-.515 1.726-1.235s-.495-1.009-1.315-1.129l-.4-.055c-.356-.048-.642-.119-.642-.373s.269-.443.721-.443a2.445 2.445 0 011.188.324zm22.057-.4a1.116 1.116 0 00-1 .554v-.459h-.815v3.785h.829v-2.122c0-.625.269-.974.792-.974a1.339 1.339 0 01.515.1l.253-.792a1.751 1.751 0 00-.586-.1zm-10.608 1.98a1.912 1.912 0 001.841 1.981h.178a1.983 1.983 0 001.362-.454l-.4-.666a1.659 1.659 0 01-.99.341 1.215 1.215 0 01-1.114-1.309 1.215 1.215 0 011.114-1.114 1.658 1.658 0 01.99.34l.4-.665a1.979 1.979 0 00-1.359-.449 1.912 1.912 0 00-2.018 1.8v.179zm7.712 0v-1.885h-.823v.459a1.436 1.436 0 00-1.188-.554 1.98 1.98 0 00-1.98 1.98 1.98 1.98 0 001.98 1.98 1.436 1.436 0 001.188-.553v.459h.823zm-3.064 0a1.144 1.144 0 011.21-1.073 1.144 1.144 0 011.074 1.207 1.144 1.144 0 01-1.137 1.077 1.137 1.137 0 01-1.151-1.122v-.09m-9.938-1.98a1.98 1.98 0 00-1.948 2.008 1.979 1.979 0 002.007 1.952 2.3 2.3 0 001.572-.515l-.4-.61a1.8 1.8 0 01-1.1.4 1.049 1.049 0 01-1.128-.927h2.813v-.317a1.8 1.8 0 00-1.8-1.983zm0 .737a.939.939 0 01.958.918h-1.98a.973.973 0 011.005-.918zm20.636 1.252v-3.413h-.792v1.98a1.436 1.436 0 00-1.188-.554 1.98 1.98 0 00-1.98 1.98 1.98 1.98 0 001.98 1.98 1.436 1.436 0 001.188-.554v.459h.792zm1.374 1.342a.39.39 0 01.15.027.4.4 0 01.123.079.424.424 0 01.083.119.371.371 0 010 .294.424.424 0 01-.083.119.4.4 0 01-.123.079.377.377 0 01-.15.031.4.4 0 01-.356-.229.371.371 0 010-.294.4.4 0 01.082-.119.413.413 0 01.123-.079.406.406 0 01.162-.027zm0 .669a.291.291 0 00.115-.024.278.278 0 00.091-.068.292.292 0 000-.4.288.288 0 00-.091-.063.278.278 0 00-.115-.024.292.292 0 00-.115.024.28.28 0 00-.095.063.294.294 0 000 .4.3.3 0 00.095.064.293.293 0 00.127.024zm.023-.471a.159.159 0 01.1.031.1.1 0 01.035.083.091.091 0 01-.027.071.139.139 0 01-.083.036l.115.13h-.091l-.107-.13h-.035v.13h-.075v-.348zm-.087.067v.1h.087a.094.094 0 00.048 0 .04.04 0 000-.036.038.038 0 000-.035.094.094 0 00-.048 0zm-4.355-1.607a1.144 1.144 0 011.209-1.076 1.144 1.144 0 011.075 1.21 1.143 1.143 0 01-1.136 1.076 1.136 1.136 0 01-1.15-1.121.805.805 0 010-.089m-27.806 0v-1.893h-.821v.459a1.436 1.436 0 00-1.188-.554 1.98 1.98 0 00-1.98 1.98 1.98 1.98 0 001.98 1.98 1.436 1.436 0 001.188-.553v.459h.823zm-3.067 0a1.145 1.145 0 011.21-1.076 1.145 1.145 0 011.08 1.211 1.144 1.144 0 01-1.137 1.076 1.136 1.136 0 01-1.158-1.114.959.959 0 010-.1z"
      style="fill: #35383f" />
    <path data-name="Pfad 1256"
      d="M17.617 14.257a14.229 14.229 0 015.441-11.208 14.254 14.254 0 00-20.014 2.4 14.253 14.253 0 002.4 20.014 14.253 14.253 0 0017.614 0 14.23 14.23 0 01-5.444-11.2"
      style="fill: #35383f" />
    <path data-name="Pfad 1257"
      d="M46.121 14.257A14.254 14.254 0 0131.87 28.51a14.253 14.253 0 01-8.809-3.048 14.253 14.253 0 002.4-20.014 14.264 14.264 0 00-2.4-2.4 14.253 14.253 0 0120.014 2.4 14.252 14.252 0 013.046 8.805z"
      style="fill: #ececec" opacity=".5" />
    <path data-name="Pfad 1259"
      d="M45.533 22.532l-.166.4-.166-.4h-.126v.553h.1v-.415l.156.362h.107l.155-.362v.42h.083v-.558zm-1.057 0v.095h.2v.458h.082v-.458h.19v-.095z"
      style="fill: #35383f" />
  </g>
</svg>