<svg xmlns="http://www.w3.org/2000/svg" width="19" height="19">
    <path
        d="M9.5 18.157L8 19l-1.17-1.267-1.692.337-.726-1.57-1.712-.2-.2-1.713-1.57-.72.337-1.692L0 11l.843-1.5L0 8l1.267-1.17L.93 5.133l1.57-.721.2-1.712 1.713-.2.72-1.57 1.692.337L8 0l1.5.844L11 0l1.17 1.267L13.867.93l.721 1.57 1.713.2.2 1.713 1.567.722-.337 1.692L19 8l-.843 1.5L19 11l-1.267 1.17.337 1.692-1.567.721L16.3 16.3l-1.713.2-.722 1.567-1.692-.337L11 19z"
        fill="#c7c2bd" />
    <path
        d="M4.036 12.93h.772V8.486L6.68 12.93h.574V6.42h-.751v4.324L4.654 6.42h-.618zm4.26 0h2.54v-.651H9.204V9.892h1.31v-.643h-1.31V7.095h1.615V6.42H8.296zm4.967.072c1.415 0 1.728-.9 1.728-2.266V6.42h-.86v4.356c0 .844-.1 1.511-.868 1.511s-.868-.667-.868-1.511V6.42h-.868v4.316c0 1.366.313 2.266 1.736 2.266z"
        style="fill: #625444"/> />
</svg>