<svg xmlns="http://www.w3.org/2000/svg" width="15.937" height="15.937">
    <g fill="#c7c2bd">
        <path
            d="M15.591 12.157c-.5-.417-3.415-2.265-3.9-2.18-.228.04-.4.234-.868.791a6.652 6.652 0 01-.708.767 6.122 6.122 0 01-1.351-.5A8.367 8.367 0 014.9 7.171a6.123 6.123 0 01-.5-1.351 6.652 6.652 0 01.767-.708c.556-.466.75-.639.791-.868.085-.486-1.764-3.4-2.18-3.9C3.605.138 3.447 0 3.244 0 2.657 0 0 3.285 0 3.711c0 .035.057 3.455 4.376 7.849 4.395 4.319 7.815 4.376 7.849 4.376.426 0 3.711-2.657 3.711-3.244 0-.2-.138-.361-.345-.535zM11.952 7.399h1.138a4.558 4.558 0 00-4.553-4.553v1.138a3.418 3.418 0 013.415 3.415z" />
        <path d="M14.798 7.4h1.139a7.408 7.408 0 00-7.4-7.4v1.138A6.268 6.268 0 0114.798 7.4z" />
    </g>
</svg>