<svg xmlns="http://www.w3.org/2000/svg" width="138.864" height="23.368">
  <g data-name="Gruppe 25585">
    <path
      d="M117.338 23.367l1.438-6.808H1.439L0 23.367h117.338M131.47 7.281S133.043.068 133.07 0h-10c0 .046-2.067 9.572-2.067 9.617h2.562c.022 0 1.572-7.19 1.572-7.19h4.853s-1.528 7.213-1.572 7.258h7.392l-.966 4.448h-7.348c0 .045-1.482 6.786-1.482 6.786h-5.549c0 .022-.495 2.426-.517 2.449h8.178c0-.022 1.462-6.808 1.462-6.808h7.347c0-.022 1.933-9.235 1.933-9.279h-7.393"
      style="fill: #ececec" />
    <path
      d="M113.378 9.415a1.726 1.726 0 011.775 1.91 5.275 5.275 0 01-.045.584h-4.562a3.087 3.087 0 012.832-2.494zm2.269 8.943l.585-2.674a9.393 9.393 0 01-3.19.606c-1.439 0-2.7-.494-2.764-2.224h7.415a8.873 8.873 0 00.426-2.561 4.179 4.179 0 00-4.516-4.495c-4 0-6.426 3.282-6.426 6.9 0 3.1 2.067 4.921 5.28 4.921a10.429 10.429 0 003.19-.472zm-12.2-2.27a2.155 2.155 0 01-2.449-2.449c0-2.134 1.348-3.91 3.483-3.91a6.421 6.421 0 012.2.495l.539-2.562a8.91 8.91 0 00-2.944-.539 6.437 6.437 0 00-6.539 6.674c0 3.325 2.045 4.9 4.988 4.9a6.547 6.547 0 002.427-.426l.584-2.63a6.494 6.494 0 01-2.292.45zm-15.526 2.4l1.236-5.685c.494-2.292 1.618-3.078 2.786-3.078 1.506 0 1.685 1.124 1.393 2.4l-1.348 6.359h3.213l1.415-6.516c.7-3.258-.808-4.966-3.167-4.966a4.9 4.9 0 00-3.641 1.673L90.1 7.35h-2.992l-2.4 11.142zm-11.549-3.213c0-1.123.988-1.753 2.628-1.753a13.021 13.021 0 011.641.113l-.135.629a2.9 2.9 0 01-2.74 2.225c-.922 0-1.393-.45-1.393-1.214zm3.1-8.2a13.47 13.47 0 00-3.483.495l-.539 2.584a13.485 13.485 0 013.393-.585c1.685 0 2.292.517 2.292 1.393a2.111 2.111 0 01-.045.516l-.046.225c-.809-.09-1.572-.157-1.933-.157-3.19 0-5.751 1.235-5.751 4.157 0 1.909 1.482 3.056 3.414 3.056a4.25 4.25 0 003.3-1.438l-.247 1.168h2.853l1.393-6.381a6.286 6.286 0 00.157-1.438c0-1.911-1.055-3.6-4.762-3.6zm-15.57 11.417l1.235-5.685c.495-2.292 1.617-3.078 2.787-3.078 1.506 0 1.685 1.124 1.393 2.4l-1.349 6.359h3.213l1.415-6.513c.7-3.258-.808-4.966-3.167-4.966a4.9 4.9 0 00-3.64 1.666l.292-1.325h-2.989l-2.4 11.144h3.214zM58.15 4.269a1.641 1.641 0 001.662 1.8 1.9 1.9 0 001.954-1.8 1.64 1.64 0 00-1.658-1.794 1.9 1.9 0 00-1.954 1.8zm-.45 3.079l-2.4 11.144h3.191l2.4-11.144zm-9.078 11.144l1.258-5.817h4.854l.585-2.853h-4.832l.742-3.573h5.1l.629-2.854h-8.425l-3.191 15.1zm-3.168-8.7l.517-2.449h-3.437l.673-3.1-3.348.741-2.09 9.526c-.583 2.7.9 4.179 3.595 4.179a7.952 7.952 0 002.181-.336l.539-2.45a7.874 7.874 0 01-1.8.27c-.922 0-1.574-.314-1.348-1.438l1.056-4.943h3.459zm-12.178 5.419c0 .9-1.1 1.056-2.022 1.056a11.35 11.35 0 01-3.167-.539l-.54 2.516a15.392 15.392 0 003.505.449c2.875 0 5.213-1.078 5.213-3.774 0-3.483-4.179-2.876-4.179-4.426 0-.7.674-.944 1.729-.944a12.41 12.41 0 012.9.539l.539-2.538a12.2 12.2 0 00-3.146-.427c-3.122 0-5.01 1.393-5.01 3.708 0 3.392 4.178 2.831 4.178 4.381zm-12.088 3.618c3.528 0 5.909-2.562 6.449-5.909.562-3.348-1.3-5.91-4.831-5.91s-5.909 2.562-6.448 5.91c-.562 3.348 1.3 5.909 4.831 5.909zm.293-2.584c-1.281 0-2.292-1.011-1.821-3.325s1.6-3.325 2.876-3.325 2.292 1.033 1.8 3.325c-.472 2.292-1.572 3.325-2.853 3.325zm-13.55-2.36h1.417c4.516 0 7.033-2.224 7.033-5.931 0-2.764-1.956-4.562-5.3-4.562H6.899l-3.191 15.1h3.235zm.562-2.764l1.056-4.965h1.349c1.483 0 2.2.607 2.2 2.022 0 1.82-1.145 2.943-3.257 2.943H8.493"
      style="fill: #35383f" />
  </g>
</svg>