<svg xmlns="http://www.w3.org/2000/svg" width="49.94" height="49.94" viewBox="0 0 49.94 49.94">
    <path
        d="M26.333,0,24.511,1.779l4.772,4.815a.607.607,0,0,1,0,.911.651.651,0,0,1-.477.174.607.607,0,0,1-.434-.174L23.556,2.733,21.127,5.162l3.123,3.08a.694.694,0,0,1,0,.954.607.607,0,0,1-.434.174.651.651,0,0,1-.477-.174L20.216,6.073,17.786,8.5,22.6,13.275a.781.781,0,0,1,0,.954.738.738,0,0,1-.954,0L16.876,9.414l-2.429,2.429,3.123,3.123a.66.66,0,0,1-.92.946l-.035-.035-3.08-3.123-2.429,2.429L15.878,20a.607.607,0,0,1,0,.911.651.651,0,0,1-.477.174.607.607,0,0,1-.434-.174l-4.815-4.772L7.722,18.567l3.123,3.08a.694.694,0,0,1,0,.954.607.607,0,0,1-.434.174.651.651,0,0,1-.477-.174L6.811,19.478,0,26.333l8.98,8.98L35.313,8.98ZM9.545,29.455h0a2.516,2.516,0,1,1,0-3.559A2.516,2.516,0,0,1,9.544,29.456Z"
        transform="translate(24.97) rotate(45)" fill="#c7c2bd" />
</svg>