<svg xmlns="http://www.w3.org/2000/svg" width="19" height="19">
  <g transform="translate(-1550.199 -8)">
    <circle cx="9.5" cy="9.5" r="9.5" transform="translate(1550.199 8)" fill="#c7c2bd" />
    <path
      d="M1558.467 20.377h1.332v-1.358c1.484-1.26 2.646-2.478 2.646-4.368a2.6 2.6 0 00-2.816-2.87 2.428 2.428 0 00-2.674 2.538 2.785 2.785 0 00.154.882l1.4-.266a3.12 3.12 0 01-.1-.7 1.115 1.115 0 011.22-1.152c.882 0 1.344.644 1.344 1.526 0 1.624-1.106 2.814-2.506 4.032zm-.068 2.842h1.5v-1.54h-1.5z" 
      style="fill: #625444"/>
  </g>
</svg>