<svg xmlns="http://www.w3.org/2000/svg" width="15.653" height="21.57">
    <path
        d="M10.187 20.314a9.426 9.426 0 00-2.231-11.9H7.95l.015.038v.028a6.926 6.926 0 01-.254 5.527l-.6 1.208-.183-1.334a5.66 5.66 0 00-.991-2.507h-.083l-.044-.124a9.775 9.775 0 01-.857 4.03 5.648 5.648 0 00.3 5.188l.645 1.082-1.16-.49A7.732 7.732 0 01.959 10.184a11.17 11.17 0 001.2-3.292l.216-1.119.551 1a5.732 5.732 0 01.577 1.532l.012.013.013.087h.012A14.115 14.115 0 006.321.715L6.358 0l.6.391a10.72 10.72 0 014.675 7.033l.012.059.006.009.027-.038a3.585 3.585 0 00.733-2.181V4.044l.742.98a12.356 12.356 0 012.489 7.954 9.381 9.381 0 01-4.9 7.9l-1.265.691z"
        fill="#c2c7bd" />
</svg>