<svg xmlns="http://www.w3.org/2000/svg" width="87.826" height="28.476">
  <g data-name="Gruppe 25587">
    <path
      d="M24.987 20.785a1.278 1.278 0 01-.586 1l-11.323 6.552a1.306 1.306 0 01-1.172 0L.587 21.789a1.276 1.276 0 01-.586-1V7.69a1.278 1.278 0 01.586-1L11.905.139a1.306 1.306 0 011.172 0l11.32 6.547a1.276 1.276 0 01.586 1zM87.826 8.632H77.694v2.424h3.639v10.362h2.868V11.056h3.624zm-46.033 0H31.645v2.424h3.642v10.362h2.868V11.056h3.632zm29.332-.4a4.616 4.616 0 00-4.966 4.988v8.2h2.837v-8.263a2.078 2.078 0 012.159-2.27 2.163 2.163 0 012.144 2.27v8.262h2.837v-8.2a4.643 4.643 0 00-5.012-4.988zm-10.7.4v12.786h2.837V8.632zm-9.623 5.065l.085.569 2.668 7.15h1.157L58.34 8.632h-2.792l-1.727 6.718-.108.726-.139-.726-2.313-6.718h-.925l-2.313 6.718-.136.725-.092-.726-1.731-6.717h-2.807l3.624 12.786h1.157l2.668-7.15.092-.571"
      style="fill: #35383f" />
    <path data-name="Shape"
      d="M18.401 14.27l-2.961 4.339-1.511-2.316 1.742-2.609a3.416 3.416 0 00.216-3.49 3.631 3.631 0 00-6.585 0 3.357 3.357 0 00.2 3.444s.971 1.421 1.774 2.625l1.311 1.9 1.974 3.027a1.14 1.14 0 00.879.494 1.234 1.234 0 00.895-.525l4.626-6.856h-2.56v-.033zm-5.814.108s-.771-1.173-1.28-1.992a1.47 1.47 0 112.561 0c-.498.817-1.285 1.99-1.285 1.99z"
      style="fill: #ececec" />
    <path data-name="Pfad 2015"
      d="M9.746 18.47l-2.9-4.077s-.771-1.173-1.28-1.992a1.462 1.462 0 011.28-2.193 1.342 1.342 0 01.432.062l1.018-1.869a3.687 3.687 0 00-1.434-.309 3.645 3.645 0 00-3.3 2.1 3.357 3.357 0 00.2 3.444l5.074 7.521a1.2 1.2 0 00.91.541 1.154 1.154 0 00.895-.525l1.527-2.332-1.311-1.93-1.11 1.56z"
      style="fill: #ececec" />
  </g>
</svg>