<svg xmlns="http://www.w3.org/2000/svg" width="25.63" height="20.829">
  <path
    d="M25.63 2.466a10.511 10.511 0 01-3.02.827A5.281 5.281 0 0024.923.385a10.582 10.582 0 01-3.339 1.275 5.264 5.264 0 00-8.961 4.8A14.929 14.929 0 011.785.96a5.266 5.266 0 001.626 7.021 5.24 5.24 0 01-2.382-.658v.067a5.26 5.26 0 004.218 5.154 5.214 5.214 0 01-1.384.186 5.349 5.349 0 01-.991-.094 5.269 5.269 0 004.914 3.652A10.654 10.654 0 010 18.465a14.954 14.954 0 0023.022-12.6c0-.228-.006-.454-.015-.68a10.687 10.687 0 002.623-2.721zm0 0"
    fill="currentColor" />
</svg>