<svg xmlns="http://www.w3.org/2000/svg" width="22.764" height="25.431">
    <path
        d="M11.384 13.206a6.6 6.6 0 10-6.6-6.6 6.62 6.62 0 006.6 6.6zM22.715 18.482a6.156 6.156 0 00-.663-1.211 8.207 8.207 0 00-5.68-3.575 1.215 1.215 0 00-.836.2 7.038 7.038 0 01-8.3 0 1.082 1.082 0 00-.836-.2 8.148 8.148 0 00-5.68 3.575 7.1 7.1 0 00-.663 1.211.613.613 0 00.029.548 11.5 11.5 0 00.778 1.153 10.959 10.959 0 001.326 1.5 17.275 17.275 0 001.322 1.154 13.149 13.149 0 0015.685 0 12.677 12.677 0 001.326-1.153 13.316 13.316 0 001.326-1.5 10.109 10.109 0 00.778-1.153.492.492 0 00.088-.549z"
        fill="currentColor" />
</svg>