<svg data-name="Gruppe 25327" xmlns="http://www.w3.org/2000/svg" width="72.198" height="22.136">
  <path data-name="Pfad 1248" d="M25.434 21.818L29.088.373h5.846l-3.657 21.445z" style="fill: #35383f" />
  <path data-name="Pfad 1249"
    d="M52.478.9a15.088 15.088 0 00-5.239-.9c-5.776 0-9.845 2.908-9.879 7.077-.033 3.081 2.9 4.8 5.121 5.827 2.275 1.051 3.04 1.721 3.03 2.66-.015 1.437-1.817 2.094-3.5 2.094a12.248 12.248 0 01-5.5-1.126l-.753-.341-.821 4.8a18.485 18.485 0 006.511 1.144c6.144 0 10.133-2.875 10.179-7.326.022-2.44-1.535-4.3-4.907-5.827-2.043-.992-3.294-1.653-3.281-2.658 0-.891 1.06-1.844 3.347-1.844a10.771 10.771 0 014.375.822l.524.247z"
    style="fill: #35383f" />
  <path data-name="Pfad 1250"
    d="M67.466.393h-4.517a2.907 2.907 0 00-3.061 1.778l-8.683 19.654h6.137s1-2.643 1.232-3.223c.67 0 6.633.009 7.485.009.175.751.711 3.214.711 3.214h5.428zm-7.207 13.823c.484-1.236 2.329-6 2.329-6-.034.057.48-1.242.775-2.046l.395 1.849 1.353 6.193z"
    style="fill: #35383f" />
  <path data-name="Pfad 1251"
    d="M20.532.388l-5.723 14.624-.609-2.971c-1.066-3.426-4.384-7.138-8.1-9l5.233 18.755 6.184-.008 9.207-21.4z"
    style="fill: #35383f" />
  <path data-name="Pfad 1252"
    d="M9.5.375H.075L0 .821C7.333 2.596 12.185 6.886 14.2 12.04l-2.05-9.855C11.8.828 10.769.422 9.5.375"
    style="fill: #ececec" />
</svg>